<?xml version="1.0" encoding="UTF-8"?>
<svg id="_レイヤー_2" data-name="レイヤー 2" xmlns="http://www.w3.org/2000/svg" viewBox="0 0 178.93 176.44">
  <defs>
    <style>
      .cls-1 {
        fill: #f4f08b;
      }

      .cls-2 {
        fill: #f9ee64;
      }

      .cls-3 {
        fill: #f8d089;
      }
    </style>
  </defs>
  <g id="_レイヤー_1-2" data-name="レイヤー 1">
    <path class="cls-2" d="M178.93,80.37c0-25.49-18.89-46.56-43.44-50C127.72,12.5,109.91,0,89.18,0s-38.59,12.53-46.35,30.45C18.58,34.14,0,55.09,0,80.37c0,13.74,5.49,26.18,14.39,35.29-1.62,7.77-1.44,16.04.91,24.2,7.7,26.81,35.67,42.3,62.48,34.61,3.64-1.05,7.07-2.48,10.26-4.22,11.25,6.14,24.83,8.03,38.12,4.22,24.8-7.12,39.91-31.6,35.94-56.45,10.34-9.25,16.85-22.68,16.85-37.64Z"/>
    <path class="cls-3" d="M172.99,81.42c0-23.67-17.54-43.24-40.34-46.43-7.22-16.59-23.76-28.2-43.01-28.2s-35.84,11.64-43.05,28.27c-22.52,3.43-39.77,22.88-39.77,46.36,0,12.76,5.1,24.32,13.36,32.77-1.5,7.22-1.33,14.89.84,22.47,7.15,24.9,33.12,39.29,58.02,32.14,3.38-.97,6.56-2.3,9.53-3.92,10.45,5.7,23.06,7.46,35.4,3.92,23.03-6.61,37.06-29.34,33.37-52.42,9.6-8.59,15.64-21.06,15.64-34.96Z"/>
    <path class="cls-1" d="M29.94,100.08c0,17.09,12.66,31.21,29.12,33.52,5.21,11.98,17.15,20.36,31.05,20.36s25.87-8.4,31.07-20.41c16.25-2.48,28.71-16.52,28.71-33.46,0-9.21-3.68-17.55-9.65-23.65,1.09-5.21.96-10.75-.61-16.22-5.16-17.97-23.91-28.36-41.88-23.2-2.44.7-4.74,1.66-6.88,2.83-7.54-4.12-16.64-5.38-25.55-2.83-16.63,4.77-26.75,21.18-24.09,37.84-6.93,6.2-11.29,15.2-11.29,25.23Z"/>
    <path class="cls-3" d="M131.6,86.61c0-11.72-8.68-21.4-19.97-22.99-3.58-8.21-11.76-13.96-21.29-13.96s-17.74,5.76-21.31,14c-11.15,1.7-19.69,11.33-19.69,22.95,0,6.31,2.52,12.04,6.61,16.22-.74,3.57-.66,7.37.42,11.12,3.54,12.32,16.4,19.45,28.72,15.91,1.67-.48,3.25-1.14,4.72-1.94,5.17,2.82,11.41,3.69,17.52,1.94,11.4-3.27,18.35-14.53,16.52-25.95,4.75-4.25,7.74-10.43,7.74-17.3Z"/>
    <path class="cls-1" d="M111.32,84.89h0c-.86-2.36-3.47-3.57-5.83-2.71l-11.04,4.04v-12.81c0-2.51-2.03-4.54-4.54-4.54s-4.54,2.03-4.54,4.54v13.22l-10.69-4.96c-2.28-1.06-4.98-.07-6.03,2.21s-.07,4.98,2.21,6.03l10.65,4.95-7.03,8.4c-1.61,1.92-1.36,4.79.57,6.4,1.92,1.61,4.79,1.36,6.4-.57l8.36-9.97,5.87,10.17c1.25,2.17,4.03,2.92,6.21,1.66,2.17-1.25,2.92-4.03,1.66-6.21l-5.8-10.05,10.89-3.98c2.36-.86,3.57-3.47,2.71-5.83Z"/>
  </g>
</svg>