<?xml version="1.0" encoding="UTF-8"?>
<svg id="_レイヤー_2" xmlns="http://www.w3.org/2000/svg" version="1.1" viewBox="0 0 79.5 79.5">
  <!-- Generator: Adobe Illustrator 29.6.1, SVG Export Plug-In . SVG Version: 2.1.1 Build 9)  -->
  <defs>
    <style>
      .st0 {
        fill: #f7dd71;
      }

      .st1 {
        isolation: isolate;
      }

      .st2 {
        fill: #343434;
      }
    </style>
  </defs>
  <g id="Layer_1">
    <rect class="st0" width="79.5" height="79.5" rx="9.9" ry="9.9"/>
    <g class="st1">
      <g class="st1">
        <path class="st2" d="M17.2,49v-16.4h-3.1v-2.6h9v2.6h-3.1v16.4h-2.7Z"/>
      </g>
      <g class="st1">
        <path class="st2" d="M23.6,32.7v-2.7h2.7v2.7h-2.7ZM23.6,49v-13.5h2.7v13.5h-2.7Z"/>
        <path class="st2" d="M28.6,49v-19h2.7v11.3h0l3.3-5.9h2.7l-3.2,5.5,3.9,8h-3l-2.4-5.8-1.3,2.1v3.8h-2.7Z"/>
      </g>
      <g class="st1">
        <path class="st2" d="M40.9,49v-16.4h-3.1v-2.6h9v2.6h-3.1v16.4h-2.7Z"/>
      </g>
      <g class="st1">
        <path class="st2" d="M45.9,40c0-.5,0-1.1.1-1.5,0-.5.2-.9.4-1.2.3-.6.8-1.1,1.4-1.4.6-.4,1.3-.5,2.2-.5s1.6.2,2.2.5c.6.4,1.1.8,1.4,1.4.2.4.3.8.4,1.2s.1,1,.1,1.5v4.4c0,.6,0,1.1-.1,1.5s-.2.9-.4,1.2c-.3.6-.8,1.1-1.4,1.4-.6.4-1.3.5-2.2.5s-1.6-.2-2.2-.5c-.6-.4-1.1-.8-1.4-1.4-.2-.4-.3-.8-.4-1.2,0-.5-.1-1-.1-1.5v-4.4ZM48.6,44.9c0,.5.1.9.4,1.2s.6.4,1,.4.7-.1,1-.4c.2-.3.4-.6.4-1.2v-5.3c0-.5-.1-.9-.4-1.2-.2-.3-.6-.4-1-.4s-.7.1-1,.4-.4.6-.4,1.2v5.3Z"/>
        <path class="st2" d="M56,49v-19h2.7v11.3h0l3.3-5.9h2.7l-3.2,5.5,3.9,8h-3l-2.5-5.8-1.3,2.1v3.8h-2.7Z"/>
      </g>
    </g>
  </g>
</svg>