<?xml version="1.0" encoding="UTF-8"?>
<svg id="_レイヤー_2" xmlns="http://www.w3.org/2000/svg" version="1.1" viewBox="0 0 79.5 79.5">
  <!-- Generator: Adobe Illustrator 29.6.1, SVG Export Plug-In . SVG Version: 2.1.1 Build 9)  -->
  <defs>
    <style>
      .st0 {
        fill: #f7dd71;
      }

      .st1 {
        isolation: isolate;
      }

      .st2 {
        fill: #343434;
      }
    </style>
  </defs>
  <g id="Layer_1">
    <rect class="st0" width="79.5" height="79.5" rx="9.9" ry="9.9"/>
    <g class="st1">
      <g class="st1">
        <path class="st2" d="M11,49v-8l-3.7-10.9h2.9l2.2,7.5h0l2.2-7.5h2.9l-3.7,10.9v8h-2.7Z"/>
      </g>
      <g class="st1">
        <path class="st2" d="M17,40c0-.5,0-1.1.1-1.5,0-.5.2-.9.4-1.2.3-.6.8-1.1,1.4-1.4.6-.4,1.3-.5,2.2-.5s1.6.2,2.2.5c.6.4,1.1.8,1.4,1.4.2.4.3.8.4,1.2s.1,1,.1,1.5v4.4c0,.6,0,1.1-.1,1.5s-.2.9-.4,1.2c-.3.6-.8,1.1-1.4,1.4-.6.4-1.3.5-2.2.5s-1.6-.2-2.2-.5c-.6-.4-1.1-.8-1.4-1.4-.2-.4-.3-.8-.4-1.2,0-.5-.1-1-.1-1.5v-4.4ZM19.7,44.9c0,.5.1.9.4,1.2s.6.4,1,.4.7-.1,1-.4.4-.6.4-1.2v-5.3c0-.5-.1-.9-.4-1.2s-.6-.4-1-.4-.7.1-1,.4-.4.6-.4,1.2v5.3Z"/>
        <path class="st2" d="M35.2,35.5v13.5h-2.7v-1.3h0c-.3.4-.6.8-1,1.1s-.9.4-1.5.4-.7,0-1-.2c-.3-.1-.6-.3-.9-.6-.3-.3-.5-.6-.6-1-.2-.4-.2-.9-.2-1.5v-10.4h2.7v9.3c0,.5.1.9.3,1.2.2.3.6.4,1,.4s.9-.2,1.1-.5c.2-.3.3-.8.3-1.4v-9.1h2.7Z"/>
        <path class="st2" d="M37.4,35.5v-4.1h2.7v4.1h1.7v2.1h-1.7v7.5c0,.3,0,.6,0,.7,0,.2.2.3.3.4.1,0,.3.1.5.2.2,0,.5,0,.8,0v2.6h-1.1c-.6,0-1.1,0-1.6-.3s-.8-.4-1-.7-.4-.6-.5-1c-.1-.4-.2-.8-.2-1.1v-8.2h-1.4v-2.1h1.4Z"/>
        <path class="st2" d="M51,35.5v13.5h-2.7v-1.3h0c-.3.4-.6.8-1,1.1s-.9.4-1.5.4-.7,0-1-.2c-.3-.1-.6-.3-.9-.6-.3-.3-.5-.6-.6-1-.2-.4-.2-.9-.2-1.5v-10.4h2.7v9.3c0,.5.1.9.3,1.2.2.3.6.4,1,.4s.9-.2,1.1-.5c.2-.3.3-.8.3-1.4v-9.1h2.7Z"/>
        <path class="st2" d="M53.2,49v-19h2.7v6.7h0c.3-.4.7-.8,1.1-1s.9-.4,1.4-.4,1.2.1,1.5.3c.4.2.7.5.9.9.2.3.3.7.3,1.1,0,.5,0,1.2,0,2.2v5.1c0,.7,0,1.3-.1,1.8,0,.4-.2.8-.3,1.1-.5.9-1.3,1.3-2.4,1.3s-1.2-.1-1.5-.4c-.4-.3-.7-.6-1-1v1.2h-2.7ZM58.6,39.6c0-.4,0-.8-.3-1.1s-.5-.5-1.1-.5-.7.1-1,.4c-.3.3-.4.6-.4,1.1v5.2c0,.5.1.9.4,1.2s.6.5,1,.5.8-.2,1-.5c.2-.3.3-.8.3-1.3v-5Z"/>
        <path class="st2" d="M71.4,43.3h-5.4v1.8c0,.4.1.8.4,1,.2.2.6.3,1,.3s.9-.2,1-.5c.2-.3.3-.6.3-.9h2.7c0,1.2-.4,2.1-1.1,2.9-.4.4-.8.7-1.3.9-.5.2-1.1.3-1.7.3s-1.6-.2-2.2-.5c-.6-.4-1.1-.8-1.4-1.4-.2-.4-.3-.8-.4-1.2s-.1-1-.1-1.5v-4.4c0-.5,0-1.1.1-1.5s.2-.9.4-1.2c.3-.6.8-1.1,1.4-1.4.6-.4,1.3-.5,2.2-.5s1.2.1,1.7.3.9.5,1.3.9c.7.8,1.1,1.8,1.1,3v3.7ZM66,41.1h2.7v-1.5c0-.5-.1-.9-.4-1.2-.2-.3-.6-.4-1-.4s-.7.1-1,.4c-.2.3-.4.6-.4,1.2v1.5Z"/>
      </g>
    </g>
  </g>
</svg>